# xmcd
#
# Track frame offsets:
#	150
#	13235
#	25846
#	39870
#	53350
#	66397
#	78912
#	91716
#	104998
#	118498
#	132061
#	145144
#	158520
#	172440
#	186375
#	200823
#	211992
#	225811
#	238325
#	251586
#	264755
#
# Disc length: 3695 seconds
#
# Revision: 1
# Processed by: cddbd v1.5.1PL0 Copyright (c) Steve Scherf et al.
# Submitted via: audiograbber 1.82.02
#
DISCID=260e6d15
DTITLE=T-Bone Walker - Quadromania Disk 4 von 4
DYEAR=2001
DGENRE=Blues
TTITLE0=Vacation Blues
TTITLE1=Inspiration Blues
TTITLE2=Description Blues
TTITLE3=T-Bone Shuffle
TTITLE4=That Old Feelin' Is Gone
TTITLE5=The Time Seems So Long
TTITLE6=Prison Blues
TTITLE7=Hometown Blues
TTITLE8=Wise Man Blues
TTITLE9=Misfortune Blues
TTITLE10=I Wish You Were Mine
TTITLE11=I'm Gonna Move You Out
TTITLE12=She's The No-Sleepin'est Woman
TTITLE13=Pain Old Down Home Blues
TTITLE14=Born To Be No Good
TTITLE15=Go Back To The One You Love (old)
TTITLE16=Go Back To The One You Love
TTITLE17=I Want A Little Girl
TTITLE18=I'm Still In Love With You
TTITLE19=You're My Best Poker Hand
TTITLE20=West Side Baby
EXTD=
EXTT0=
EXTT1=
EXTT2=
EXTT3=
EXTT4=
EXTT5=
EXTT6=
EXTT7=
EXTT8=
EXTT9=
EXTT10=
EXTT11=
EXTT12=
EXTT13=
EXTT14=
EXTT15=
EXTT16=
EXTT17=
EXTT18=
EXTT19=
EXTT20=
PLAYORDER=
